HIERARCHY
ROOT Hips
{
	OFFSET -0.001795 -0.223333 0.028219
	CHANNELS 6 Xposition Yposition Zposition Zrotation Yrotation Xrotation 
	JOINT LeftUpLeg
	{
		OFFSET 0.069520 -0.091406 -0.006815
		CHANNELS 3 Zrotation Yrotation Xrotation
		JOINT LeftLeg
		{
			OFFSET 0.034277 -0.375199 -0.004496
			CHANNELS 3 Zrotation Yrotation Xrotation
			JOINT LeftFoot
			{
				OFFSET -0.013596 -0.397961 -0.043693
				CHANNELS 3 Zrotation Yrotation Xrotation
				JOINT LeftToe
				{
					OFFSET 0.026358 -0.055791 0.119288
					CHANNELS 3 Zrotation Yrotation Xrotation
					End Site
					{
						OFFSET 0.000000 0.000000 0.000000
					}
				}
			}
		}
	}
	JOINT RightUpLeg
	{
		OFFSET -0.067670 -0.090522 -0.004320
		CHANNELS 3 Zrotation Yrotation Xrotation
		JOINT RightLeg
		{
			OFFSET -0.038290 -0.382569 -0.008850
			CHANNELS 3 Zrotation Yrotation Xrotation
			JOINT RightFoot
			{
				OFFSET 0.015774 -0.398415 -0.042312
				CHANNELS 3 Zrotation Yrotation Xrotation
				JOINT RightToe
				{
					OFFSET -0.025372 -0.048144 0.123348
					CHANNELS 3 Zrotation Yrotation Xrotation
					End Site
					{
						OFFSET 0.000000 0.000000 0.000000
					}
				}
			}
		}
	}
	JOINT Spine
	{
		OFFSET -0.002533 0.108963 -0.026696
		CHANNELS 3 Zrotation Yrotation Xrotation
		JOINT Spine1
		{
			OFFSET 0.005487 0.135180 0.001092
			CHANNELS 3 Zrotation Yrotation Xrotation
			JOINT Spine2
			{
				OFFSET 0.001457 0.052922 0.025425
				CHANNELS 3 Zrotation Yrotation Xrotation
				JOINT Neck
				{
					OFFSET -0.002778 0.213870 -0.042857
					CHANNELS 3 Zrotation Yrotation Xrotation
					JOINT Head
					{
						OFFSET 0.005152 0.064970 0.051349
						CHANNELS 3 Zrotation Yrotation Xrotation
						End Site
						{
							OFFSET 0.000000 0.000000 0.000000
						}
					}
				}
				JOINT LeftShoulder
				{
					OFFSET 0.078845 0.121749 -0.034090
					CHANNELS 3 Zrotation Yrotation Xrotation
					JOINT LeftArm
					{
						OFFSET 0.090977 0.030469 -0.008868
						CHANNELS 3 Zrotation Yrotation Xrotation
						JOINT LeftForeArm
						{
							OFFSET 0.259612 -0.012772 -0.027456
							CHANNELS 3 Zrotation Yrotation Xrotation
							JOINT LeftHand
							{
								OFFSET 0.249234 0.008986 -0.001171
								CHANNELS 3 Zrotation Yrotation Xrotation
								End Site
								{
									OFFSET 0.000000 0.000000 0.000000
								}
							}
						}
					}
				}
				JOINT RightShoulder
				{
					OFFSET -0.081759 0.118833 -0.038615
					CHANNELS 3 Zrotation Yrotation Xrotation
					JOINT RightArm
					{
						OFFSET -0.096012 0.032551 -0.009143
						CHANNELS 3 Zrotation Yrotation Xrotation
						JOINT RightForeArm
						{
							OFFSET -0.253742 -0.013329 -0.021401
							CHANNELS 3 Zrotation Yrotation Xrotation
							JOINT RightHand
							{
								OFFSET -0.255298 0.007772 -0.005559
								CHANNELS 3 Zrotation Yrotation Xrotation
								End Site
								{
									OFFSET 0.000000 0.000000 0.000000
								}
							}
						}
					}
				}
			}
		}
	}
}
MOTION
Frames: 13
Frame Time: 0.050000
0.000000 0.957262 0.000000 -0.114104 2.349176 -2.231690 0.700592 -0.657332 -7.568509 -3.821644 0.334763 13.236584 26.148769 36.037716 33.171908 0.000000 0.000000 0.000000 -5.401772 0.725819 -12.952159 5.198244 -0.821222 19.445636 12.539513 10.958325 25.024920 0.000000 0.000000 0.000000 2.872956 -1.289903 18.371429 6.076889 -1.123466 -20.490853 1.236573 1.919338 24.154965 3.230606 -0.450517 -19.113622 0.000000 0.000000 0.000000 -15.069692 -12.491846 4.715197 -16.734148 -28.217266 -0.151590 1.542217 -62.868229 0.827965 0.000000 0.000000 0.000000 2.897497 14.673495 5.506937 7.213514 13.722409 -1.044339 -35.508546 32.048767 -8.792799 0.000000 0.000000 0.000000 
0.002352 0.955669 -0.002652 -0.345513 1.848805 -2.098371 1.002808 -0.696490 -8.247456 -4.698053 0.548679 14.324012 26.757154 36.910866 31.920819 0.000000 0.000000 0.000000 -4.660027 0.852466 -13.635223 4.247481 -0.525744 20.983065 11.657624 11.337003 21.901734 0.000000 0.000000 0.000000 3.898162 -1.484663 18.825109 5.093902 -0.763736 -21.784540 2.928190 3.144897 26.016019 4.377924 -1.254130 -17.971056 0.000000 0.000000 0.000000 -17.321315 -11.915432 4.329622 -15.066182 -26.531354 -0.508537 -2.036244 -62.861708 2.757426 0.000000 0.000000 0.000000 1.785683 13.606763 4.995555 5.422538 13.536513 -1.039469 -31.464399 29.021827 -6.803105 0.000000 0.000000 0.000000 
0.004808 0.952526 -0.005345 0.570869 1.255159 -2.208530 -0.271530 -0.814213 -8.631649 -3.563379 0.299591 15.323619 25.191400 35.534506 31.607990 0.000000 0.000000 0.000000 -5.642439 0.804391 -14.587745 4.406419 -0.531977 21.730241 11.402153 10.104802 23.037353 0.000000 0.000000 0.000000 4.700389 -1.694618 20.011128 5.590307 -0.869727 -22.370879 2.399434 5.358973 26.253865 4.799067 -1.243698 -17.812567 0.000000 0.000000 0.000000 -17.025992 -11.318352 3.571099 -15.381654 -24.330220 -0.548911 -9.228590 -63.479495 6.855122 0.000000 0.000000 0.000000 3.069061 14.300805 5.550906 3.042643 12.170536 -0.949274 -29.761073 28.323490 -6.119419 0.000000 0.000000 0.000000 
0.007836 0.948653 -0.008174 0.438762 0.688528 -2.325895 0.157168 -0.911534 -10.023998 -4.572319 0.580490 18.039368 25.508251 36.049416 30.707017 0.000000 0.000000 0.000000 -6.128656 0.823478 -15.895345 4.815841 -0.631752 24.127030 12.026646 11.659713 22.023642 0.000000 0.000000 0.000000 5.444194 -1.909799 21.125084 5.560614 -0.948980 -21.385787 2.783449 5.790911 26.204110 4.079855 -0.497787 -19.581842 0.000000 0.000000 0.000000 -18.946208 -9.788204 2.681140 -14.872390 -21.219702 -0.738810 -12.508500 -65.020529 9.086456 0.000000 0.000000 0.000000 3.994064 14.931157 5.957625 -0.276677 11.311186 -0.740552 -27.564417 25.951007 -5.164294 0.000000 0.000000 0.000000 
0.010833 0.941724 -0.010551 1.114073 -0.494185 -2.826066 -0.343498 -1.041558 -10.986392 -5.239464 0.869104 20.441595 26.805478 37.041159 31.509315 0.000000 0.000000 0.000000 -6.897514 0.817489 -17.278346 5.049240 -0.606513 26.652433 11.664165 11.203575 21.467488 0.000000 0.000000 0.000000 5.938651 -2.058270 22.512735 5.602893 -1.051859 -20.596200 2.986240 6.858083 25.459424 3.603298 -0.246980 -18.331596 0.000000 0.000000 0.000000 -20.247112 -10.287750 2.773916 -14.278112 -17.815350 -0.885962 -14.777464 -65.039742 10.446140 0.000000 0.000000 0.000000 5.072678 15.995815 6.572968 -2.003094 10.108867 -0.538620 -26.336889 27.057156 -5.201549 0.000000 0.000000 0.000000 
0.013613 0.935593 -0.012924 1.407980 -1.362473 -3.166513 -0.376534 -1.135209 -11.992326 -6.225980 1.290648 22.547260 28.342627 38.315688 32.012465 0.000000 0.000000 0.000000 -7.364771 0.838636 -18.609791 5.322220 -0.607919 29.240400 11.256902 11.208431 20.174138 0.000000 0.000000 0.000000 6.655240 -2.267857 23.803655 5.346442 -1.076737 -19.683743 2.533218 7.216716 25.312210 3.033523 0.212992 -19.008015 0.000000 0.000000 0.000000 -21.416402 -10.239942 2.722802 -13.558623 -14.986585 -1.028774 -15.051547 -66.592570 10.901473 0.000000 0.000000 0.000000 6.243060 16.188564 6.856160 -3.683886 10.147985 -0.435784 -24.739398 27.933111 -5.100366 0.000000 0.000000 0.000000 
0.015244 0.931106 -0.014957 1.634789 -1.840189 -3.200653 -0.376657 -1.213770 -12.871121 -6.366554 1.422409 23.879005 28.329036 38.192979 32.337389 0.000000 0.000000 0.000000 -7.614764 0.860988 -19.549561 5.688664 -0.685365 30.990257 9.988942 10.276063 18.059717 0.000000 0.000000 0.000000 6.909670 -2.389191 24.861772 5.078780 -1.001300 -19.835035 2.315418 7.171995 25.503579 3.307475 -0.041464 -18.851871 0.000000 0.000000 0.000000 -22.025846 -10.296317 2.833634 -12.510278 -13.799247 -1.087244 -10.626323 -66.861104 8.017738 0.000000 0.000000 0.000000 7.358358 16.400383 7.124958 -4.833468 9.493876 -0.295408 -22.588612 30.202289 -5.111620 0.000000 0.000000 0.000000 
0.015934 0.930293 -0.016571 1.682191 -2.197843 -3.289116 0.031808 -1.144725 -12.648533 -6.797121 1.579841 23.368286 28.181272 37.938580 32.696963 0.000000 0.000000 0.000000 -7.536512 0.890526 -19.611200 5.726677 -0.654585 31.027377 9.488836 9.622251 17.591442 0.000000 0.000000 0.000000 6.634943 -2.375011 25.639924 5.459530 -1.135839 -19.667872 1.611459 7.258211 25.267082 3.484643 -0.211734 -18.535482 0.000000 0.000000 0.000000 -22.743641 -10.218251 2.781282 -11.393736 -13.472762 -1.065890 -6.612464 -67.414782 5.399134 0.000000 0.000000 0.000000 7.875395 15.919525 7.004908 -5.328969 9.544527 -0.269322 -20.073066 32.785600 -4.937253 0.000000 0.000000 0.000000 
0.015849 0.932546 -0.017500 1.461637 -2.379246 -2.668834 0.430583 -1.102304 -12.707442 -6.754458 1.530159 22.162895 27.733870 37.451608 32.960146 0.000000 0.000000 0.000000 -7.182986 0.962926 -19.646842 5.724163 -0.646102 29.567878 9.322681 8.876370 18.277832 0.000000 0.000000 0.000000 6.244379 -2.331921 26.061496 5.118641 -0.997529 -20.180028 1.397386 6.541229 25.156338 3.451859 -0.204995 -19.582613 0.000000 0.000000 0.000000 -23.276662 -9.497053 2.594230 -10.067533 -14.062581 -1.051427 0.135211 -68.762208 1.002681 0.000000 0.000000 0.000000 7.819180 15.169521 6.598856 -5.012174 9.448148 -0.293768 -18.639736 36.053564 -5.098091 0.000000 0.000000 0.000000 
0.015576 0.937175 -0.017389 1.132474 -2.903761 -1.984417 0.736895 -1.052212 -12.588777 -6.653023 1.460653 20.314254 28.698530 37.689965 35.197967 0.000000 0.000000 0.000000 -6.718840 1.048702 -19.344317 5.456325 -0.516741 27.265385 10.150256 9.147095 20.093521 0.000000 0.000000 0.000000 5.434395 -2.138114 26.147636 5.842077 -1.150706 -20.849621 0.763105 6.185001 25.082366 3.602679 -0.270545 -20.800986 0.000000 0.000000 0.000000 -23.118184 -8.457322 2.197871 -9.520805 -14.225871 -1.068787 7.208786 -70.112944 -3.870630 0.000000 0.000000 0.000000 7.538005 13.915892 5.967597 -4.107309 9.698967 -0.391008 -18.954171 38.732168 -5.653728 0.000000 0.000000 0.000000 
0.015409 0.943480 -0.016346 0.824575 -2.869761 -1.128998 0.927461 -0.973215 -11.844021 -6.080246 1.197044 17.845975 26.899173 36.311657 34.365547 0.000000 0.000000 0.000000 -6.445999 1.061409 -18.663270 5.480423 -0.556991 24.106095 10.693486 8.603872 22.523213 0.000000 0.000000 0.000000 4.786904 -1.990379 25.842626 5.754207 -1.051131 -21.635851 0.475991 5.229629 25.420606 3.529622 -0.295807 -21.643137 0.000000 0.000000 0.000000 -23.120992 -7.470831 1.938674 -9.491816 -15.064128 -1.115345 16.734858 -71.771890 -10.752053 0.000000 0.000000 0.000000 6.569809 12.338263 5.109946 -1.847673 9.231624 -0.501554 -21.806731 41.371154 -7.151654 0.000000 0.000000 0.000000 
0.015439 0.949590 -0.014891 0.419500 -2.801928 -0.453259 1.138703 -0.917292 -11.387113 -5.256500 0.909447 15.783555 25.847923 35.048669 35.588922 0.000000 0.000000 0.000000 -5.700563 1.121216 -17.867401 5.201425 -0.500827 20.900784 10.647480 6.797329 25.580803 0.000000 0.000000 0.000000 4.318824 -1.861139 25.202521 5.822194 -1.092160 -21.242991 -0.162494 4.395754 24.934547 3.497368 -0.434858 -21.244694 0.000000 0.000000 0.000000 -22.408210 -6.056351 1.371463 -10.336238 -15.545242 -1.149169 24.746006 -74.332605 -17.183850 0.000000 0.000000 0.000000 6.713921 10.813184 4.439832 0.416060 8.579140 -0.612468 -25.790064 43.506870 -9.123528 0.000000 0.000000 0.000000 
0.015670 0.954062 -0.014144 0.101473 -2.834245 0.407152 1.446954 -0.875744 -11.212787 -4.663797 0.725905 14.146842 24.016944 33.426543 35.414465 0.000000 0.000000 0.000000 -5.269242 1.183588 -17.795687 5.606795 -0.621402 18.938796 9.494123 4.270786 27.053827 0.000000 0.000000 0.000000 3.565576 -1.678077 24.773655 6.008769 -1.073031 -21.947564 -0.134139 4.103410 25.676180 3.354054 -0.335306 -21.923396 0.000000 0.000000 0.000000 -21.954928 -5.063453 0.952186 -11.776308 -15.342072 -1.231575 31.866926 -76.428091 -23.384219 0.000000 0.000000 0.000000 6.952815 9.197654 3.791801 3.064526 8.110841 -0.797893 -29.215417 43.877910 -10.518461 0.000000 0.000000 0.000000 
